<?xml version="1.0" encoding="UTF-8"?>
<svg id="Layer_2" xmlns="http://www.w3.org/2000/svg" viewBox="0 0 1679 582">
  <defs>
    <style>
      .cls-1 {
        fill: #fff;
      }

      .cls-2, .cls-3 {
        fill: none;
      }

      .cls-3 {
        stroke: #fff;
        stroke-miterlimit: 10;
        stroke-width: 4px;
      }
    </style>
  </defs>
  <g>
    <path class="cls-1" d="M110.82,119.4c2.1-.35,4.85-.65,8.35-.65,4.3,0,7.45,1,9.45,2.8,1.85,1.6,2.95,4.05,2.95,7.05s-.9,5.45-2.6,7.2c-2.3,2.45-6.05,3.7-10.3,3.7-1.3,0-2.5-.05-3.5-.3v13.5h-4.35v-33.3ZM115.17,135.65c.95.25,2.15.35,3.6.35,5.25,0,8.45-2.55,8.45-7.2s-3.15-6.6-7.95-6.6c-1.9,0-3.35.15-4.1.35v13.1Z"/>
    <path class="cls-1" d="M136.47,136.05c0-2.85-.05-5.3-.2-7.55h3.85l.15,4.75h.2c1.1-3.25,3.75-5.3,6.7-5.3.5,0,.85.05,1.25.15v4.15c-.45-.1-.9-.15-1.5-.15-3.1,0-5.3,2.35-5.9,5.65-.1.6-.2,1.3-.2,2.05v12.9h-4.35v-16.65Z"/>
    <path class="cls-1" d="M154.77,141.4c.1,5.95,3.9,8.4,8.3,8.4,3.15,0,5.05-.55,6.7-1.25l.75,3.15c-1.55.7-4.2,1.5-8.05,1.5-7.45,0-11.9-4.9-11.9-12.2s4.3-13.05,11.35-13.05c7.9,0,10,6.95,10,11.4,0,.9-.1,1.6-.15,2.05h-17ZM167.67,138.25c.05-2.8-1.15-7.15-6.1-7.15-4.45,0-6.4,4.1-6.75,7.15h12.85Z"/>
    <path class="cls-1" d="M176.77,148.2c1.3.85,3.6,1.75,5.8,1.75,3.2,0,4.7-1.6,4.7-3.6,0-2.1-1.25-3.25-4.5-4.45-4.35-1.55-6.4-3.95-6.4-6.85,0-3.9,3.15-7.1,8.35-7.1,2.45,0,4.6.7,5.95,1.5l-1.1,3.2c-.95-.6-2.7-1.4-4.95-1.4-2.6,0-4.05,1.5-4.05,3.3,0,2,1.45,2.9,4.6,4.1,4.2,1.6,6.35,3.7,6.35,7.3,0,4.25-3.3,7.25-9.05,7.25-2.65,0-5.1-.65-6.8-1.65l1.1-3.35Z"/>
    <path class="cls-1" d="M214.42,151.8c-1.15.6-3.7,1.4-6.95,1.4-7.3,0-12.05-4.95-12.05-12.35s5.1-12.85,13-12.85c2.6,0,4.9.65,6.1,1.25l-1,3.4c-1.05-.6-2.7-1.15-5.1-1.15-5.55,0-8.55,4.1-8.55,9.15,0,5.6,3.6,9.05,8.4,9.05,2.5,0,4.15-.65,5.4-1.2l.75,3.3Z"/>
    <path class="cls-1" d="M232.97,152.7l-.35-3.05h-.15c-1.35,1.9-3.95,3.6-7.4,3.6-4.9,0-7.4-3.45-7.4-6.95,0-5.85,5.2-9.05,14.55-9v-.5c0-2-.55-5.6-5.5-5.6-2.25,0-4.6.7-6.3,1.8l-1-2.9c2-1.3,4.9-2.15,7.95-2.15,7.4,0,9.2,5.05,9.2,9.9v9.05c0,2.1.1,4.15.4,5.8h-4ZM232.32,140.35c-4.8-.1-10.25.75-10.25,5.45,0,2.85,1.9,4.2,4.15,4.2,3.15,0,5.15-2,5.85-4.05.15-.45.25-.95.25-1.4v-4.2Z"/>
    <path class="cls-1" d="M243.67,135.05c0-2.5-.05-4.55-.2-6.55h3.9l.25,4h.1c1.2-2.3,4-4.55,8-4.55,3.35,0,8.55,2,8.55,10.3v14.45h-4.4v-13.95c0-3.9-1.45-7.15-5.6-7.15-2.9,0-5.15,2.05-5.9,4.5-.2.55-.3,1.3-.3,2.05v14.55h-4.4v-17.65Z"/>
  </g>
  <g>
    <path class="cls-1" d="M571.49,80.47v33.7h-4.35v-33.7h4.35Z"/>
    <path class="cls-1" d="M579.44,96.52c0-2.5-.05-4.55-.2-6.55h3.85l.2,3.9h.15c1.35-2.3,3.6-4.45,7.6-4.45,3.3,0,5.8,2,6.85,4.85h.1c.75-1.35,1.7-2.4,2.7-3.15,1.45-1.1,3.05-1.7,5.35-1.7,3.2,0,7.95,2.1,7.95,10.5v14.25h-4.3v-13.7c0-4.65-1.7-7.45-5.25-7.45-2.5,0-4.45,1.85-5.2,4-.2.6-.35,1.4-.35,2.2v14.95h-4.3v-14.5c0-3.85-1.7-6.65-5.05-6.65-2.75,0-4.75,2.2-5.45,4.4-.25.65-.35,1.4-.35,2.15v14.6h-4.3v-17.65Z"/>
    <path class="cls-1" d="M634.54,114.17l-.35-3.05h-.15c-1.35,1.9-3.95,3.6-7.4,3.6-4.9,0-7.4-3.45-7.4-6.95,0-5.85,5.2-9.05,14.55-9v-.5c0-2-.55-5.6-5.5-5.6-2.25,0-4.6.7-6.3,1.8l-1-2.9c2-1.3,4.9-2.15,7.95-2.15,7.4,0,9.2,5.05,9.2,9.9v9.05c0,2.1.1,4.15.4,5.8h-4ZM633.89,101.82c-4.8-.1-10.25.75-10.25,5.45,0,2.85,1.9,4.2,4.15,4.2,3.15,0,5.15-2,5.85-4.05.15-.45.25-.95.25-1.4v-4.2Z"/>
    <path class="cls-1" d="M666.09,89.97c-.1,1.75-.2,3.7-.2,6.65v14.05c0,5.55-1.1,8.95-3.45,11.05-2.35,2.2-5.75,2.9-8.8,2.9s-6.1-.7-8.05-2l1.1-3.35c1.6,1,4.1,1.9,7.1,1.9,4.5,0,7.8-2.35,7.8-8.45v-2.7h-.1c-1.35,2.25-3.95,4.05-7.7,4.05-6,0-10.3-5.1-10.3-11.8,0-8.2,5.35-12.85,10.9-12.85,4.2,0,6.5,2.2,7.55,4.2h.1l.2-3.65h3.85ZM661.54,99.52c0-.75-.05-1.4-.25-2-.8-2.55-2.95-4.65-6.15-4.65-4.2,0-7.2,3.55-7.2,9.15,0,4.75,2.4,8.7,7.15,8.7,2.7,0,5.15-1.7,6.1-4.5.25-.75.35-1.6.35-2.35v-4.35Z"/>
    <path class="cls-1" d="M675.64,102.87c.1,5.95,3.9,8.4,8.3,8.4,3.15,0,5.05-.55,6.7-1.25l.75,3.15c-1.55.7-4.2,1.5-8.05,1.5-7.45,0-11.9-4.9-11.9-12.2s4.3-13.05,11.35-13.05c7.9,0,10,6.95,10,11.4,0,.9-.1,1.6-.15,2.05h-17ZM688.54,99.72c.05-2.8-1.15-7.15-6.1-7.15-4.45,0-6.4,4.1-6.75,7.15h12.85Z"/>
    <path class="cls-1" d="M553.89,163.57l-3.5,10.6h-4.5l11.45-33.7h5.25l11.5,33.7h-4.65l-3.6-10.6h-11.95ZM564.94,160.17l-3.3-9.7c-.75-2.2-1.25-4.2-1.75-6.15h-.1c-.5,2-1.05,4.05-1.7,6.1l-3.3,9.75h10.15Z"/>
    <path class="cls-1" d="M578.74,156.52c0-2.5-.05-4.55-.2-6.55h3.9l.25,4h.1c1.2-2.3,4-4.55,8-4.55,3.35,0,8.55,2,8.55,10.3v14.45h-4.4v-13.95c0-3.9-1.45-7.15-5.6-7.15-2.9,0-5.15,2.05-5.9,4.5-.2.55-.3,1.3-.3,2.05v14.55h-4.4v-17.65Z"/>
    <path class="cls-1" d="M619.89,174.17l-.35-3.05h-.15c-1.35,1.9-3.95,3.6-7.4,3.6-4.9,0-7.4-3.45-7.4-6.95,0-5.85,5.2-9.05,14.55-9v-.5c0-2-.55-5.6-5.5-5.6-2.25,0-4.6.7-6.3,1.8l-1-2.9c2-1.3,4.9-2.15,7.95-2.15,7.4,0,9.2,5.05,9.2,9.9v9.05c0,2.1.1,4.15.4,5.8h-4ZM619.24,161.82c-4.8-.1-10.25.75-10.25,5.45,0,2.85,1.9,4.2,4.15,4.2,3.15,0,5.15-2,5.85-4.05.15-.45.25-.95.25-1.4v-4.2Z"/>
    <path class="cls-1" d="M630.59,138.67h4.4v35.5h-4.4v-35.5Z"/>
    <path class="cls-1" d="M643.99,149.97l5.3,14.3c.55,1.6,1.15,3.5,1.55,4.95h.1c.45-1.45.95-3.3,1.55-5.05l4.8-14.2h4.65l-6.6,17.25c-3.15,8.3-5.3,12.55-8.3,15.15-2.15,1.9-4.3,2.65-5.4,2.85l-1.1-3.7c1.1-.35,2.55-1.05,3.85-2.15,1.2-.95,2.7-2.65,3.7-4.9.2-.45.35-.8.35-1.05s-.1-.6-.3-1.15l-8.95-22.3h4.8Z"/>
    <path class="cls-1" d="M665.04,169.67c1.3.85,3.6,1.75,5.8,1.75,3.2,0,4.7-1.6,4.7-3.6,0-2.1-1.25-3.25-4.5-4.45-4.35-1.55-6.4-3.95-6.4-6.85,0-3.9,3.15-7.1,8.35-7.1,2.45,0,4.6.7,5.95,1.5l-1.1,3.2c-.95-.6-2.7-1.4-4.95-1.4-2.6,0-4.05,1.5-4.05,3.3,0,2,1.45,2.9,4.6,4.1,4.2,1.6,6.35,3.7,6.35,7.3,0,4.25-3.3,7.25-9.05,7.25-2.65,0-5.1-.65-6.8-1.65l1.1-3.35Z"/>
    <path class="cls-1" d="M690.34,143.17c.05,1.5-1.05,2.7-2.8,2.7-1.55,0-2.65-1.2-2.65-2.7s1.15-2.75,2.75-2.75,2.7,1.2,2.7,2.75ZM685.44,174.17v-24.2h4.4v24.2h-4.4Z"/>
    <path class="cls-1" d="M696.54,169.67c1.3.85,3.6,1.75,5.8,1.75,3.2,0,4.7-1.6,4.7-3.6,0-2.1-1.25-3.25-4.5-4.45-4.35-1.55-6.4-3.95-6.4-6.85,0-3.9,3.15-7.1,8.35-7.1,2.45,0,4.6.7,5.95,1.5l-1.1,3.2c-.95-.6-2.7-1.4-4.95-1.4-2.6,0-4.05,1.5-4.05,3.3,0,2,1.45,2.9,4.6,4.1,4.2,1.6,6.35,3.7,6.35,7.3,0,4.25-3.3,7.25-9.05,7.25-2.65,0-5.1-.65-6.8-1.65l1.1-3.35Z"/>
  </g>
  <g>
    <path class="cls-1" d="M1014.66,108.87c1.95,1.2,4.8,2.2,7.8,2.2,4.45,0,7.05-2.35,7.05-5.75,0-3.15-1.8-4.95-6.35-6.7-5.5-1.95-8.9-4.8-8.9-9.55,0-5.25,4.35-9.15,10.9-9.15,3.45,0,5.95.8,7.45,1.65l-1.2,3.55c-1.1-.6-3.35-1.6-6.4-1.6-4.6,0-6.35,2.75-6.35,5.05,0,3.15,2.05,4.7,6.7,6.5,5.7,2.2,8.6,4.95,8.6,9.9,0,5.2-3.85,9.7-11.8,9.7-3.25,0-6.8-.95-8.6-2.15l1.1-3.65Z"/>
    <path class="cls-1" d="M1044.91,83.02v6.95h6.3v3.35h-6.3v13.05c0,3,.85,4.7,3.3,4.7,1.15,0,2-.15,2.55-.3l.2,3.3c-.85.35-2.2.6-3.9.6-2.05,0-3.7-.65-4.75-1.85-1.25-1.3-1.7-3.45-1.7-6.3v-13.2h-3.75v-3.35h3.75v-5.8l4.3-1.15Z"/>
    <path class="cls-1" d="M1069.56,114.17l-.35-3.05h-.15c-1.35,1.9-3.95,3.6-7.4,3.6-4.9,0-7.4-3.45-7.4-6.95,0-5.85,5.2-9.05,14.55-9v-.5c0-2-.55-5.6-5.5-5.6-2.25,0-4.6.7-6.3,1.8l-1-2.9c2-1.3,4.9-2.15,7.95-2.15,7.4,0,9.2,5.05,9.2,9.9v9.05c0,2.1.1,4.15.4,5.8h-4ZM1068.91,101.82c-4.8-.1-10.25.75-10.25,5.45,0,2.85,1.9,4.2,4.15,4.2,3.15,0,5.15-2,5.85-4.05.15-.45.25-.95.25-1.4v-4.2Z"/>
    <path class="cls-1" d="M1101.11,89.97c-.1,1.75-.2,3.7-.2,6.65v14.05c0,5.55-1.1,8.95-3.45,11.05-2.35,2.2-5.75,2.9-8.8,2.9s-6.1-.7-8.05-2l1.1-3.35c1.6,1,4.1,1.9,7.1,1.9,4.5,0,7.8-2.35,7.8-8.45v-2.7h-.1c-1.35,2.25-3.95,4.05-7.7,4.05-6,0-10.3-5.1-10.3-11.8,0-8.2,5.35-12.85,10.9-12.85,4.2,0,6.5,2.2,7.55,4.2h.1l.2-3.65h3.85ZM1096.56,99.52c0-.75-.05-1.4-.25-2-.8-2.55-2.95-4.65-6.15-4.65-4.2,0-7.2,3.55-7.2,9.15,0,4.75,2.4,8.7,7.15,8.7,2.7,0,5.15-1.7,6.1-4.5.25-.75.35-1.6.35-2.35v-4.35Z"/>
    <path class="cls-1" d="M1110.66,102.87c.1,5.95,3.9,8.4,8.3,8.4,3.15,0,5.05-.55,6.7-1.25l.75,3.15c-1.55.7-4.2,1.5-8.05,1.5-7.45,0-11.9-4.9-11.9-12.2s4.3-13.05,11.35-13.05c7.9,0,10,6.95,10,11.4,0,.9-.1,1.6-.15,2.05h-17ZM1123.56,99.72c.05-2.8-1.15-7.15-6.1-7.15-4.45,0-6.4,4.1-6.75,7.15h12.85Z"/>
    <path class="cls-1" d="M989.21,159.37c-.25-4.7-.55-10.35-.5-14.55h-.15c-1.15,3.95-2.55,8.15-4.25,12.8l-5.95,16.35h-3.3l-5.45-16.05c-1.6-4.75-2.95-9.1-3.9-13.1h-.1c-.1,4.2-.35,9.85-.65,14.9l-.9,14.45h-4.15l2.35-33.7h5.55l5.75,16.3c1.4,4.15,2.55,7.85,3.4,11.35h.15c.85-3.4,2.05-7.1,3.55-11.35l6-16.3h5.55l2.1,33.7h-4.25l-.85-14.8Z"/>
    <path class="cls-1" d="M1023.06,161.87c0,8.95-6.2,12.85-12.05,12.85-6.55,0-11.6-4.8-11.6-12.45,0-8.1,5.3-12.85,12-12.85s11.65,5.05,11.65,12.45ZM1003.86,162.12c0,5.3,3.05,9.3,7.35,9.3s7.35-3.95,7.35-9.4c0-4.1-2.05-9.3-7.25-9.3s-7.45,4.8-7.45,9.4Z"/>
    <path class="cls-1" d="M1029.96,149.97l4.75,13.6c.8,2.2,1.45,4.2,1.95,6.2h.15c.55-2,1.25-4,2.05-6.2l4.7-13.6h4.6l-9.5,24.2h-4.2l-9.2-24.2h4.7Z"/>
    <path class="cls-1" d="M1054.26,162.87c.1,5.95,3.9,8.4,8.3,8.4,3.15,0,5.05-.55,6.7-1.25l.75,3.15c-1.55.7-4.2,1.5-8.05,1.5-7.45,0-11.9-4.9-11.9-12.2s4.3-13.05,11.35-13.05c7.9,0,10,6.95,10,11.4,0,.9-.1,1.6-.15,2.05h-17ZM1067.16,159.72c.05-2.8-1.15-7.15-6.1-7.15-4.45,0-6.4,4.1-6.75,7.15h12.85Z"/>
    <path class="cls-1" d="M1076.86,156.52c0-2.5-.05-4.55-.2-6.55h3.85l.2,3.9h.15c1.35-2.3,3.6-4.45,7.6-4.45,3.3,0,5.8,2,6.85,4.85h.1c.75-1.35,1.7-2.4,2.7-3.15,1.45-1.1,3.05-1.7,5.35-1.7,3.2,0,7.95,2.1,7.95,10.5v14.25h-4.3v-13.7c0-4.65-1.7-7.45-5.25-7.45-2.5,0-4.45,1.85-5.2,4-.2.6-.35,1.4-.35,2.2v14.95h-4.3v-14.5c0-3.85-1.7-6.65-5.05-6.65-2.75,0-4.75,2.2-5.45,4.4-.25.65-.35,1.4-.35,2.15v14.6h-4.3v-17.65Z"/>
    <path class="cls-1" d="M1121.01,162.87c.1,5.95,3.9,8.4,8.3,8.4,3.15,0,5.05-.55,6.7-1.25l.75,3.15c-1.55.7-4.2,1.5-8.05,1.5-7.45,0-11.9-4.9-11.9-12.2s4.3-13.05,11.35-13.05c7.9,0,10,6.95,10,11.4,0,.9-.1,1.6-.15,2.05h-17ZM1133.91,159.72c.05-2.8-1.15-7.15-6.1-7.15-4.45,0-6.4,4.1-6.75,7.15h12.85Z"/>
    <path class="cls-1" d="M1143.61,156.52c0-2.5-.05-4.55-.2-6.55h3.9l.25,4h.1c1.2-2.3,4-4.55,8-4.55,3.35,0,8.55,2,8.55,10.3v14.45h-4.4v-13.95c0-3.9-1.45-7.15-5.6-7.15-2.9,0-5.15,2.05-5.9,4.5-.2.55-.3,1.3-.3,2.05v14.55h-4.4v-17.65Z"/>
    <path class="cls-1" d="M1176.46,143.02v6.95h6.3v3.35h-6.3v13.05c0,3,.85,4.7,3.3,4.7,1.15,0,2-.15,2.55-.3l.2,3.3c-.85.35-2.2.6-3.9.6-2.05,0-3.7-.65-4.75-1.85-1.25-1.3-1.7-3.45-1.7-6.3v-13.2h-3.75v-3.35h3.75v-5.8l4.3-1.15Z"/>
  </g>
  <g>
    <path class="cls-1" d="M1437.38,137.9c-.25-4.7-.55-10.35-.5-14.55h-.15c-1.15,3.95-2.55,8.15-4.25,12.8l-5.95,16.35h-3.3l-5.45-16.05c-1.6-4.75-2.95-9.1-3.9-13.1h-.1c-.1,4.2-.35,9.85-.65,14.9l-.9,14.45h-4.15l2.35-33.7h5.55l5.75,16.3c1.4,4.15,2.55,7.85,3.4,11.35h.15c.85-3.4,2.05-7.1,3.55-11.35l6-16.3h5.55l2.1,33.7h-4.25l-.85-14.8Z"/>
    <path class="cls-1" d="M1462.73,152.7l-.35-3.05h-.15c-1.35,1.9-3.95,3.6-7.4,3.6-4.9,0-7.4-3.45-7.4-6.95,0-5.85,5.2-9.05,14.55-9v-.5c0-2-.55-5.6-5.5-5.6-2.25,0-4.6.7-6.3,1.8l-1-2.9c2-1.3,4.9-2.15,7.95-2.15,7.4,0,9.2,5.05,9.2,9.9v9.05c0,2.1.1,4.15.4,5.8h-4ZM1462.08,140.35c-4.8-.1-10.25.75-10.25,5.45,0,2.85,1.9,4.2,4.15,4.2,3.15,0,5.15-2,5.85-4.05.15-.45.25-.95.25-1.4v-4.2Z"/>
    <path class="cls-1" d="M1478.33,121.7c.05,1.5-1.05,2.7-2.8,2.7-1.55,0-2.65-1.2-2.65-2.7s1.15-2.75,2.75-2.75,2.7,1.2,2.7,2.75ZM1473.42,152.7v-24.2h4.4v24.2h-4.4Z"/>
    <path class="cls-1" d="M1485.12,135.05c0-2.5-.05-4.55-.2-6.55h3.9l.25,4h.1c1.2-2.3,4-4.55,8-4.55,3.35,0,8.55,2,8.55,10.3v14.45h-4.4v-13.95c0-3.9-1.45-7.15-5.6-7.15-2.9,0-5.15,2.05-5.9,4.5-.2.55-.3,1.3-.3,2.05v14.55h-4.4v-17.65Z"/>
    <path class="cls-1" d="M1523.03,147.4c1.95,1.2,4.8,2.2,7.8,2.2,4.45,0,7.05-2.35,7.05-5.75,0-3.15-1.8-4.95-6.35-6.7-5.5-1.95-8.9-4.8-8.9-9.55,0-5.25,4.35-9.15,10.9-9.15,3.45,0,5.95.8,7.45,1.65l-1.2,3.55c-1.1-.6-3.35-1.6-6.4-1.6-4.6,0-6.35,2.75-6.35,5.05,0,3.15,2.05,4.7,6.7,6.5,5.7,2.2,8.6,4.95,8.6,9.9,0,5.2-3.85,9.7-11.8,9.7-3.25,0-6.8-.95-8.6-2.15l1.1-3.65Z"/>
    <path class="cls-1" d="M1565.68,151.8c-1.15.6-3.7,1.4-6.95,1.4-7.3,0-12.05-4.95-12.05-12.35s5.1-12.85,13-12.85c2.6,0,4.9.65,6.1,1.25l-1,3.4c-1.05-.6-2.7-1.15-5.1-1.15-5.55,0-8.55,4.1-8.55,9.15,0,5.6,3.6,9.05,8.4,9.05,2.5,0,4.15-.65,5.4-1.2l.75,3.3Z"/>
    <path class="cls-1" d="M1584.23,152.7l-.35-3.05h-.15c-1.35,1.9-3.95,3.6-7.4,3.6-4.9,0-7.4-3.45-7.4-6.95,0-5.85,5.2-9.05,14.55-9v-.5c0-2-.55-5.6-5.5-5.6-2.25,0-4.6.7-6.3,1.8l-1-2.9c2-1.3,4.9-2.15,7.95-2.15,7.4,0,9.2,5.05,9.2,9.9v9.05c0,2.1.1,4.15.4,5.8h-4ZM1583.58,140.35c-4.8-.1-10.25.75-10.25,5.45,0,2.85,1.9,4.2,4.15,4.2,3.15,0,5.15-2,5.85-4.05.15-.45.25-.95.25-1.4v-4.2Z"/>
    <path class="cls-1" d="M1594.92,135.05c0-2.5-.05-4.55-.2-6.55h3.9l.25,4h.1c1.2-2.3,4-4.55,8-4.55,3.35,0,8.55,2,8.55,10.3v14.45h-4.4v-13.95c0-3.9-1.45-7.15-5.6-7.15-2.9,0-5.15,2.05-5.9,4.5-.2.55-.3,1.3-.3,2.05v14.55h-4.4v-17.65Z"/>
  </g>
  <g>
    <line class="cls-3" x1="326" y1="134.95" x2="468.52" y2="134.95"/>
    <polygon class="cls-1" points="466.18 142.93 480 134.95 466.18 126.98 466.18 142.93"/>
  </g>
  <g>
    <line class="cls-3" x1="764.5" y1="134.95" x2="907.02" y2="134.95"/>
    <polygon class="cls-1" points="904.68 142.93 918.5 134.95 904.68 126.98 904.68 142.93"/>
  </g>
  <g>
    <line class="cls-3" x1="1203" y1="134.95" x2="1345.52" y2="134.95"/>
    <polygon class="cls-1" points="1343.18 142.93 1357 134.95 1343.18 126.98 1343.18 142.93"/>
  </g>
  <path class="cls-2" d="M1447,203v83H231.97"/>
  <g>
    <path class="cls-3" d="M1450,175v113H227.99v-91.08"/>
    <polygon class="cls-1" points="235.97 199.25 227.99 185.44 220.01 199.25 235.97 199.25"/>
  </g>
  <g>
    <path class="cls-3" d="M1554,175v244H128v-223.97"/>
    <polygon class="cls-1" points="135.98 197.36 128 183.54 120.02 197.36 135.98 197.36"/>
  </g>
  <g>
    <path class="cls-1" d="M714.16,327.42c-.25-4.7-.55-10.35-.5-14.55h-.15c-1.15,3.95-2.55,8.15-4.25,12.8l-5.95,16.35h-3.3l-5.45-16.05c-1.6-4.75-2.95-9.1-3.9-13.1h-.1c-.1,4.2-.35,9.85-.65,14.9l-.9,14.45h-4.15l2.35-33.7h5.55l5.75,16.3c1.4,4.15,2.55,7.85,3.4,11.35h.15c.85-3.4,2.05-7.1,3.55-11.35l6-16.3h5.55l2.1,33.7h-4.25l-.85-14.8Z"/>
    <path class="cls-1" d="M746.21,335.62c0,2.5.05,4.7.2,6.6h-3.9l-.25-3.95h-.1c-1.15,1.95-3.7,4.5-8,4.5-3.8,0-8.35-2.1-8.35-10.6v-14.15h4.4v13.4c0,4.6,1.4,7.7,5.4,7.7,2.95,0,5-2.05,5.8-4,.25-.65.4-1.45.4-2.25v-14.85h4.4v17.6Z"/>
    <path class="cls-1" d="M753.51,306.72h4.4v35.5h-4.4v-35.5Z"/>
    <path class="cls-1" d="M770.61,311.07v6.95h6.3v3.35h-6.3v13.05c0,3,.85,4.7,3.3,4.7,1.15,0,2-.15,2.55-.3l.2,3.3c-.85.35-2.2.6-3.9.6-2.05,0-3.7-.65-4.75-1.85-1.25-1.3-1.7-3.45-1.7-6.3v-13.2h-3.75v-3.35h3.75v-5.8l4.3-1.15Z"/>
    <path class="cls-1" d="M786.76,311.22c.05,1.5-1.05,2.7-2.8,2.7-1.55,0-2.65-1.2-2.65-2.7s1.15-2.75,2.75-2.75,2.7,1.2,2.7,2.75ZM781.86,342.22v-24.2h4.4v24.2h-4.4Z"/>
    <path class="cls-1" d="M793.56,325.92c0-3.1-.1-5.6-.2-7.9h3.95l.2,4.15h.1c1.8-2.95,4.65-4.7,8.6-4.7,5.85,0,10.25,4.95,10.25,12.3,0,8.7-5.3,13-11,13-3.2,0-6-1.4-7.45-3.8h-.1v13.15h-4.35v-26.2ZM797.91,332.37c0,.65.1,1.25.2,1.8.8,3.05,3.45,5.15,6.6,5.15,4.65,0,7.35-3.8,7.35-9.35,0-4.85-2.55-9-7.2-9-3,0-5.8,2.15-6.65,5.45-.15.55-.3,1.2-.3,1.8v4.15Z"/>
    <path class="cls-1" d="M822.01,306.72h4.4v35.5h-4.4v-35.5Z"/>
    <path class="cls-1" d="M836.26,330.92c.1,5.95,3.9,8.4,8.3,8.4,3.15,0,5.05-.55,6.7-1.25l.75,3.15c-1.55.7-4.2,1.5-8.05,1.5-7.45,0-11.9-4.9-11.9-12.2s4.3-13.05,11.35-13.05c7.9,0,10,6.95,10,11.4,0,.9-.1,1.6-.15,2.05h-17ZM849.16,327.77c.05-2.8-1.15-7.15-6.1-7.15-4.45,0-6.4,4.1-6.75,7.15h12.85Z"/>
    <path class="cls-1" d="M869.01,336.92c1.95,1.2,4.8,2.2,7.8,2.2,4.45,0,7.05-2.35,7.05-5.75,0-3.15-1.8-4.95-6.35-6.7-5.5-1.95-8.9-4.8-8.9-9.55,0-5.25,4.35-9.15,10.9-9.15,3.45,0,5.95.8,7.45,1.65l-1.2,3.55c-1.1-.6-3.35-1.6-6.4-1.6-4.6,0-6.35,2.75-6.35,5.05,0,3.15,2.05,4.7,6.7,6.5,5.7,2.2,8.6,4.95,8.6,9.9,0,5.2-3.85,9.7-11.8,9.7-3.25,0-6.8-.95-8.6-2.15l1.1-3.65Z"/>
    <path class="cls-1" d="M907.66,342.22l-.35-3.05h-.15c-1.35,1.9-3.95,3.6-7.4,3.6-4.9,0-7.4-3.45-7.4-6.95,0-5.85,5.2-9.05,14.55-9v-.5c0-2-.55-5.6-5.5-5.6-2.25,0-4.6.7-6.3,1.8l-1-2.9c2-1.3,4.9-2.15,7.95-2.15,7.4,0,9.2,5.05,9.2,9.9v9.05c0,2.1.1,4.15.4,5.8h-4ZM907.01,329.87c-4.8-.1-10.25.75-10.25,5.45,0,2.85,1.9,4.2,4.15,4.2,3.15,0,5.15-2,5.85-4.05.15-.45.25-.95.25-1.4v-4.2Z"/>
    <path class="cls-1" d="M918.36,324.57c0-2.5-.05-4.55-.2-6.55h3.85l.2,3.9h.15c1.35-2.3,3.6-4.45,7.6-4.45,3.3,0,5.8,2,6.85,4.85h.1c.75-1.35,1.7-2.4,2.7-3.15,1.45-1.1,3.05-1.7,5.35-1.7,3.2,0,7.95,2.1,7.95,10.5v14.25h-4.3v-13.7c0-4.65-1.7-7.45-5.25-7.45-2.5,0-4.45,1.85-5.2,4-.2.6-.35,1.4-.35,2.2v14.95h-4.3v-14.5c0-3.85-1.7-6.65-5.05-6.65-2.75,0-4.75,2.2-5.45,4.4-.25.65-.35,1.4-.35,2.15v14.6h-4.3v-17.65Z"/>
    <path class="cls-1" d="M960.06,325.92c0-3.1-.1-5.6-.2-7.9h3.95l.2,4.15h.1c1.8-2.95,4.65-4.7,8.6-4.7,5.85,0,10.25,4.95,10.25,12.3,0,8.7-5.3,13-11,13-3.2,0-6-1.4-7.45-3.8h-.1v13.15h-4.35v-26.2ZM964.41,332.37c0,.65.1,1.25.2,1.8.8,3.05,3.45,5.15,6.6,5.15,4.65,0,7.35-3.8,7.35-9.35,0-4.85-2.55-9-7.2-9-3,0-5.8,2.15-6.65,5.45-.15.55-.3,1.2-.3,1.8v4.15Z"/>
    <path class="cls-1" d="M988.51,306.72h4.4v35.5h-4.4v-35.5Z"/>
    <path class="cls-1" d="M1002.76,330.92c.1,5.95,3.9,8.4,8.3,8.4,3.15,0,5.05-.55,6.7-1.25l.75,3.15c-1.55.7-4.2,1.5-8.05,1.5-7.45,0-11.9-4.9-11.9-12.2s4.3-13.05,11.35-13.05c7.9,0,10,6.95,10,11.4,0,.9-.1,1.6-.15,2.05h-17ZM1015.66,327.77c.05-2.8-1.15-7.15-6.1-7.15-4.45,0-6.4,4.1-6.75,7.15h12.85Z"/>
    <path class="cls-1" d="M1024.76,337.72c1.3.85,3.6,1.75,5.8,1.75,3.2,0,4.7-1.6,4.7-3.6,0-2.1-1.25-3.25-4.5-4.45-4.35-1.55-6.4-3.95-6.4-6.85,0-3.9,3.15-7.1,8.35-7.1,2.45,0,4.6.7,5.95,1.5l-1.1,3.2c-.95-.6-2.7-1.4-4.95-1.4-2.6,0-4.05,1.5-4.05,3.3,0,2,1.45,2.9,4.6,4.1,4.2,1.6,6.35,3.7,6.35,7.3,0,4.25-3.3,7.25-9.05,7.25-2.65,0-5.1-.65-6.8-1.65l1.1-3.35Z"/>
  </g>
  <g>
    <path class="cls-1" d="M685.94,461.64c-.25-4.7-.55-10.35-.5-14.55h-.15c-1.15,3.95-2.55,8.15-4.25,12.8l-5.95,16.35h-3.3l-5.45-16.05c-1.6-4.75-2.95-9.1-3.9-13.1h-.1c-.1,4.2-.35,9.85-.65,14.9l-.9,14.45h-4.15l2.35-33.7h5.55l5.75,16.3c1.4,4.15,2.55,7.85,3.4,11.35h.15c.85-3.4,2.05-7.1,3.55-11.35l6-16.3h5.55l2.1,33.7h-4.25l-.85-14.8Z"/>
    <path class="cls-1" d="M717.99,469.84c0,2.5.05,4.7.2,6.6h-3.9l-.25-3.95h-.1c-1.15,1.95-3.7,4.5-8,4.5-3.8,0-8.35-2.1-8.35-10.6v-14.15h4.4v13.4c0,4.6,1.4,7.7,5.4,7.7,2.95,0,5-2.05,5.8-4,.25-.65.4-1.45.4-2.25v-14.85h4.4v17.6Z"/>
    <path class="cls-1" d="M725.29,440.94h4.4v35.5h-4.4v-35.5Z"/>
    <path class="cls-1" d="M742.39,445.29v6.95h6.3v3.35h-6.3v13.05c0,3,.85,4.7,3.3,4.7,1.15,0,2-.15,2.55-.3l.2,3.3c-.85.35-2.2.6-3.9.6-2.05,0-3.7-.65-4.75-1.85-1.25-1.3-1.7-3.45-1.7-6.3v-13.2h-3.75v-3.35h3.75v-5.8l4.3-1.15Z"/>
    <path class="cls-1" d="M758.54,445.44c.05,1.5-1.05,2.7-2.8,2.7-1.55,0-2.65-1.2-2.65-2.7s1.15-2.75,2.75-2.75,2.7,1.2,2.7,2.75ZM753.64,476.44v-24.2h4.4v24.2h-4.4Z"/>
    <path class="cls-1" d="M765.34,460.14c0-3.1-.1-5.6-.2-7.9h3.95l.2,4.15h.1c1.8-2.95,4.65-4.7,8.6-4.7,5.85,0,10.25,4.95,10.25,12.3,0,8.7-5.3,13-11,13-3.2,0-6-1.4-7.45-3.8h-.1v13.15h-4.35v-26.2ZM769.69,466.59c0,.65.1,1.25.2,1.8.8,3.05,3.45,5.15,6.6,5.15,4.65,0,7.35-3.8,7.35-9.35,0-4.85-2.55-9-7.2-9-3,0-5.8,2.15-6.65,5.45-.15.55-.3,1.2-.3,1.8v4.15Z"/>
    <path class="cls-1" d="M793.79,440.94h4.4v35.5h-4.4v-35.5Z"/>
    <path class="cls-1" d="M808.04,465.14c.1,5.95,3.9,8.4,8.3,8.4,3.15,0,5.05-.55,6.7-1.25l.75,3.15c-1.55.7-4.2,1.5-8.05,1.5-7.45,0-11.9-4.9-11.9-12.2s4.3-13.05,11.35-13.05c7.9,0,10,6.95,10,11.4,0,.9-.1,1.6-.15,2.05h-17ZM820.94,461.99c.05-2.8-1.15-7.15-6.1-7.15-4.45,0-6.4,4.1-6.75,7.15h12.85Z"/>
    <path class="cls-1" d="M845.74,446.44h-10.25v-3.7h24.95v3.7h-10.3v30h-4.4v-30Z"/>
    <path class="cls-1" d="M868.34,445.44c.05,1.5-1.05,2.7-2.8,2.7-1.55,0-2.65-1.2-2.65-2.7s1.15-2.75,2.75-2.75,2.7,1.2,2.7,2.75ZM863.44,476.44v-24.2h4.4v24.2h-4.4Z"/>
    <path class="cls-1" d="M875.14,458.79c0-2.5-.05-4.55-.2-6.55h3.85l.2,3.9h.15c1.35-2.3,3.6-4.45,7.6-4.45,3.3,0,5.8,2,6.85,4.85h.1c.75-1.35,1.7-2.4,2.7-3.15,1.45-1.1,3.05-1.7,5.35-1.7,3.2,0,7.95,2.1,7.95,10.5v14.25h-4.3v-13.7c0-4.65-1.7-7.45-5.25-7.45-2.5,0-4.45,1.85-5.2,4-.2.6-.35,1.4-.35,2.2v14.95h-4.3v-14.5c0-3.85-1.7-6.65-5.05-6.65-2.75,0-4.75,2.2-5.45,4.4-.25.65-.35,1.4-.35,2.15v14.6h-4.3v-17.65Z"/>
    <path class="cls-1" d="M919.29,465.14c.1,5.95,3.9,8.4,8.3,8.4,3.15,0,5.05-.55,6.7-1.25l.75,3.15c-1.55.7-4.2,1.5-8.05,1.5-7.45,0-11.9-4.9-11.9-12.2s4.3-13.05,11.35-13.05c7.9,0,10,6.95,10,11.4,0,.9-.1,1.6-.15,2.05h-17ZM932.19,461.99c.05-2.8-1.15-7.15-6.1-7.15-4.45,0-6.4,4.1-6.75,7.15h12.85Z"/>
    <path class="cls-1" d="M941.89,460.14c0-3.1-.1-5.6-.2-7.9h3.95l.2,4.15h.1c1.8-2.95,4.65-4.7,8.6-4.7,5.85,0,10.25,4.95,10.25,12.3,0,8.7-5.3,13-11,13-3.2,0-6-1.4-7.45-3.8h-.1v13.15h-4.35v-26.2ZM946.24,466.59c0,.65.1,1.25.2,1.8.8,3.05,3.45,5.15,6.6,5.15,4.65,0,7.35-3.8,7.35-9.35,0-4.85-2.55-9-7.2-9-3,0-5.8,2.15-6.65,5.45-.15.55-.3,1.2-.3,1.8v4.15Z"/>
    <path class="cls-1" d="M992.24,464.14c0,8.95-6.2,12.85-12.05,12.85-6.55,0-11.6-4.8-11.6-12.45,0-8.1,5.3-12.85,12-12.85s11.65,5.05,11.65,12.45ZM973.04,464.39c0,5.3,3.05,9.3,7.35,9.3s7.35-3.95,7.35-9.4c0-4.1-2.05-9.3-7.25-9.3s-7.45,4.8-7.45,9.4Z"/>
    <path class="cls-1" d="M1002.69,445.44c.05,1.5-1.05,2.7-2.8,2.7-1.55,0-2.65-1.2-2.65-2.7s1.15-2.75,2.75-2.75,2.7,1.2,2.7,2.75ZM997.79,476.44v-24.2h4.4v24.2h-4.4Z"/>
    <path class="cls-1" d="M1009.49,458.79c0-2.5-.05-4.55-.2-6.55h3.9l.25,4h.1c1.2-2.3,4-4.55,8-4.55,3.35,0,8.55,2,8.55,10.3v14.45h-4.4v-13.95c0-3.9-1.45-7.15-5.6-7.15-2.9,0-5.15,2.05-5.9,4.5-.2.55-.3,1.3-.3,2.05v14.55h-4.4v-17.65Z"/>
    <path class="cls-1" d="M1042.34,445.29v6.95h6.3v3.35h-6.3v13.05c0,3,.85,4.7,3.3,4.7,1.15,0,2-.15,2.55-.3l.2,3.3c-.85.35-2.2.6-3.9.6-2.05,0-3.7-.65-4.75-1.85-1.25-1.3-1.7-3.45-1.7-6.3v-13.2h-3.75v-3.35h3.75v-5.8l4.3-1.15Z"/>
    <path class="cls-1" d="M1052.99,471.94c1.3.85,3.6,1.75,5.8,1.75,3.2,0,4.7-1.6,4.7-3.6,0-2.1-1.25-3.25-4.5-4.45-4.35-1.55-6.4-3.95-6.4-6.85,0-3.9,3.15-7.1,8.35-7.1,2.45,0,4.6.7,5.95,1.5l-1.1,3.2c-.95-.6-2.7-1.4-4.95-1.4-2.6,0-4.05,1.5-4.05,3.3,0,2,1.45,2.9,4.6,4.1,4.2,1.6,6.35,3.7,6.35,7.3,0,4.25-3.3,7.25-9.05,7.25-2.65,0-5.1-.65-6.8-1.65l1.1-3.35Z"/>
  </g>
</svg>