<?xml version="1.0" encoding="UTF-8"?>
<svg id="Layer_1" data-name="Layer 1" xmlns="http://www.w3.org/2000/svg" viewBox="0 0 289.28 301.89">
  <defs>
    <style>
      .cls-1, .cls-2, .cls-3 {
        fill: #231f20;
      }

      .cls-4 {
        stroke-width: 5px;
      }

      .cls-4, .cls-2, .cls-5, .cls-3 {
        stroke: #231f20;
        stroke-miterlimit: 10;
      }

      .cls-4, .cls-5 {
        fill: none;
      }

      .cls-5 {
        stroke-width: 21.07px;
      }

      .cls-3 {
        stroke-width: 1.49px;
      }
    </style>
  </defs>
  <rect class="cls-4" x="72.45" y="108.81" width="70.29" height="18" transform="translate(24.98 -18.68) rotate(11.22)"/>
  <rect class="cls-4" x="99.64" y="21.63" width="38.45" height="78.76" transform="translate(14.14 -21.96) rotate(11.22)"/>
  <path class="cls-3" d="M180,198.72c-26.76,26.76-53.52,53.52-80.28,80.28h-26.76c13.38-13.38,26.76-26.76,40.14-40.14-13.38-13.38-26.76-26.76-40.14-40.14h26.76c8.92,8.92,17.84,17.84,26.76,26.76,8.92-8.92,17.84-17.84,26.76-26.76h26.76Z"/>
  <path class="cls-1" d="M153,95.59h18v95.7h-18v-95.7Z"/>
  <rect class="cls-4" x="38.48" y="178.65" width="90" height="20.07"/>
  <g>
    <path class="cls-2" d="M139.54,273.83c1.41.87,3.47,1.59,5.64,1.59,3.22,0,5.1-1.7,5.1-4.16,0-2.28-1.3-3.58-4.59-4.84-3.98-1.41-6.43-3.47-6.43-6.9,0-3.8,3.14-6.62,7.88-6.62,2.49,0,4.3.58,5.39,1.19l-.87,2.57c-.79-.44-2.42-1.16-4.63-1.16-3.33,0-4.59,1.99-4.59,3.65,0,2.28,1.48,3.4,4.84,4.7,4.12,1.59,6.22,3.58,6.22,7.16,0,3.76-2.78,7.01-8.53,7.01-2.35,0-4.92-.69-6.22-1.55l.79-2.64Z"/>
    <path class="cls-2" d="M162.43,255.98h-7.41v-2.68h18.04v2.68h-7.45v21.69h-3.18v-21.69Z"/>
    <path class="cls-2" d="M174.04,265.63c0-2.06-.04-3.83-.15-5.46h2.78l.11,3.43h.14c.79-2.35,2.71-3.83,4.84-3.83.36,0,.62.04.9.11v3c-.33-.07-.65-.11-1.09-.11-2.24,0-3.83,1.7-4.26,4.09-.07.43-.14.94-.14,1.48v9.33h-3.14v-12.04Z"/>
    <path class="cls-2" d="M195.38,277.67l-.25-2.2h-.11c-.98,1.37-2.85,2.6-5.35,2.6-3.54,0-5.35-2.49-5.35-5.02,0-4.23,3.76-6.54,10.52-6.51v-.36c0-1.45-.4-4.05-3.98-4.05-1.63,0-3.33.51-4.56,1.3l-.72-2.1c1.45-.94,3.54-1.55,5.75-1.55,5.35,0,6.65,3.65,6.65,7.16v6.54c0,1.52.07,3,.29,4.19h-2.89ZM194.9,268.74c-3.47-.07-7.41.54-7.41,3.94,0,2.06,1.37,3.04,3,3.04,2.28,0,3.72-1.45,4.23-2.93.11-.32.18-.69.18-1.01v-3.03Z"/>
    <path class="cls-2" d="M215.59,277.01c-.83.43-2.68,1.01-5.03,1.01-5.28,0-8.71-3.58-8.71-8.93s3.68-9.29,9.4-9.29c1.88,0,3.54.47,4.41.9l-.72,2.46c-.76-.43-1.95-.83-3.68-.83-4.01,0-6.18,2.96-6.18,6.61,0,4.05,2.6,6.54,6.07,6.54,1.81,0,3-.47,3.9-.87l.54,2.39Z"/>
    <path class="cls-2" d="M222.47,268.19h.07c.43-.61,1.05-1.37,1.55-1.99l5.13-6.04h3.83l-6.76,7.19,7.7,10.3h-3.87l-6.04-8.39-1.63,1.81v6.58h-3.14v-25.67h3.14v16.19Z"/>
  </g>
  <g>
    <path class="cls-4" d="M90,45c-27.3,4.18-49.94,23.57-58.27,49.9-7.24,22.89-2.61,47.71,11.82,66.37"/>
    <polygon class="cls-1" points="36.6 164.43 50.75 169.27 47.86 154.59 36.6 164.43"/>
  </g>
  <g>
    <path class="cls-4" d="M243,225c5.15-5.65,28.3-32.28,27-72-1.23-37.73-23.72-62.91-36.58-74.3"/>
    <polygon class="cls-1" points="239.77 74.35 225 72 230.35 85.97 239.77 74.35"/>
  </g>
  <path class="cls-5" d="M144,72c54.92,7.18,92.59,48.49,89.86,90-2,30.52-25.67,58.41-59.91,72"/>
</svg>